<svg width="34" height="33" viewBox="0 0 34 33" fill="none" xmlns="http://www.w3.org/2000/svg">
<path fill-rule="evenodd" clip-rule="evenodd" d="M17.0118 0.5C8.00851 0.5 0.728516 7.83333 0.728516 16.9067C0.728516 24.16 5.39185 30.2967 11.8618 32.47C12.6718 32.6333 12.9685 32.1167 12.9685 31.6833C12.9685 31.3033 12.9418 30 12.9418 28.64C8.41185 29.6167 7.46852 26.6833 7.46852 26.6833C6.74185 24.7833 5.66185 24.2933 5.66185 24.2933C4.17852 23.29 5.76852 23.29 5.76852 23.29C7.41185 23.4 8.27518 24.9733 8.27518 24.9733C9.73185 27.4733 12.0752 26.7667 13.0218 26.33C13.1552 25.27 13.5885 24.5367 14.0452 24.13C10.4318 23.75 6.63185 22.3367 6.63185 16.0367C6.63185 14.2433 7.27852 12.7767 8.30185 11.6367C8.13852 11.23 7.57518 9.54667 8.46518 7.29C8.46518 7.29 9.83852 6.85667 12.9418 8.97333C14.2685 8.61333 15.6385 8.43 17.0118 8.43C18.3852 8.43 19.7885 8.62 21.0819 8.97333C24.1819 6.85333 25.5585 7.29 25.5585 7.29C26.4485 9.54333 25.8819 11.23 25.7219 11.6367C26.7719 12.7767 27.3918 14.2433 27.3918 16.0367C27.3918 22.34 23.5918 23.7233 19.9518 24.13C20.5452 24.6467 21.0585 25.6233 21.0585 27.1733C21.0585 29.3733 21.0318 31.14 21.0318 31.6833C21.0318 32.1167 21.3285 32.6333 22.1385 32.47C28.6085 30.2967 33.2719 24.16 33.2719 16.9067C33.2985 7.83333 25.9918 0.5 17.0152 0.5L17.0118 0.5Z" fill="#24292F"/>
</svg>
