<svg width="269" height="91" viewBox="0 0 269 91" fill="none" xmlns="http://www.w3.org/2000/svg">
<path d="M28.7591 90.805C21.5598 90.805 15.8722 89.8413 11.6585 87.8951C7.46366 85.9677 4.45925 83.2089 2.68306 79.6377C0.906869 76.0664 -0.00012207 71.8338 -0.00012207 66.9398V42.092C-0.00012207 37.1413 0.887974 32.8898 2.68306 29.3563C4.45925 25.8228 7.46366 23.083 11.6585 21.1556C15.8533 19.2283 21.5598 18.2457 28.7591 18.2457C35.9583 18.2457 41.6459 19.2094 45.8596 21.1556C50.0545 23.083 53.0589 25.8228 54.8351 29.3563C56.6113 32.8898 57.5182 37.1413 57.5182 42.092V66.9398C57.5182 71.8338 56.6302 76.0664 54.8351 79.6377C53.0589 83.2089 50.0545 85.9488 45.8596 87.8951C41.6648 89.8224 35.9583 90.805 28.7591 90.805ZM28.7591 39.2765C28.2678 39.9946 27.5497 41.0527 26.5861 42.451C25.6224 43.8493 24.5831 45.3421 23.4494 46.9482C22.3345 48.5543 21.2953 50.0282 20.3694 51.3887C19.4246 52.7491 18.7255 53.7695 18.2342 54.4309C18.7255 55.0355 19.4246 56.037 20.3694 57.4164C21.3142 58.8147 22.3345 60.3263 23.4494 61.9513C24.5642 63.5764 25.6035 65.088 26.5861 66.4863C27.5497 67.8846 28.2867 68.9427 28.7591 69.6608C29.2504 68.9427 29.9684 67.8846 30.9321 66.4863C31.8957 65.088 32.935 63.5764 34.0687 61.9513C35.1836 60.3263 36.2228 58.8147 37.2054 57.4164C38.1691 56.0181 38.8682 55.0355 39.2839 54.4309C38.8682 53.7695 38.1691 52.7491 37.2054 51.3887C36.2417 50.0282 35.2025 48.5543 34.0687 46.9482C32.9539 45.3421 31.9146 43.8493 30.9321 42.451C29.9684 41.0527 29.2315 39.9946 28.7591 39.2765ZM87.0711 90.0681H60.7683V18.9637H87.0711V90.0681Z" fill="white"/>
<path d="M90.3402 85.8165C94.5728 85.8165 97.7851 84.8151 99.9959 82.831C102.207 80.8281 103.737 77.7859 104.569 73.6666C105.419 69.5474 105.835 64.3322 105.835 57.9832V23.2341H90.7748V19.0582H147.821V23.2341H132.137V57.9643C132.137 64.3133 132.553 69.5474 133.403 73.6477C134.254 77.767 135.784 80.8092 138.033 82.8121C140.263 84.8151 143.475 85.7976 147.651 85.7976V90.0681C143.607 90.1248 139.79 89.8791 136.219 89.35C132.648 88.802 129.416 87.8384 126.506 86.4401C123.597 85.0418 121.102 83.2089 118.986 80.9037C116.926 83.2656 114.451 85.1363 111.541 86.5346C108.631 87.9329 105.381 88.8965 101.791 89.4445C98.2008 89.9925 94.365 90.2003 90.3213 90.087V85.8165H90.3402ZM151.468 90.0681V19.0582H177.77V90.0681H151.468Z" fill="white"/>
<path d="M180.945 48.252C180.945 43.7737 181.965 39.9379 184.025 36.7256C186.084 33.5134 189.353 31.0569 193.813 29.3374C198.291 27.6179 204.149 26.7487 211.404 26.7487H239.332C248.402 26.7487 255.28 28.2226 259.966 31.1514C264.652 34.0802 267.487 38.1806 268.45 43.4336C268.564 44.2272 268.677 45.0019 268.772 45.7955C268.866 46.5892 268.904 47.4017 268.904 48.252C268.904 52.9003 267.581 56.9818 264.955 60.4964C262.328 64.0109 258.19 66.543 252.578 68.1113C250.707 68.6593 248.686 69.0561 246.494 69.3395C244.321 69.6041 241.921 69.7552 239.332 69.7552V85.8165H268.45V90.087H181.379V85.8165H210.497V69.7552C209.175 69.7552 207.89 69.7174 206.681 69.623C205.471 69.5285 204.3 69.434 203.147 69.3017C195.23 68.4514 189.542 66.2028 186.103 62.5371C182.664 58.8713 180.926 54.1096 180.926 48.252H180.945ZM181.398 23.3097V19.0393H216.506C215.713 18.0756 215.108 16.9797 214.655 15.7703C214.201 14.561 213.974 13.2572 213.974 11.8778C213.974 9.87491 214.466 8.06092 215.429 6.39811C216.393 4.73529 217.735 3.3937 219.416 2.35444C221.117 1.33407 222.988 0.804993 225.047 0.804993C227.107 0.804993 228.864 1.31518 230.527 2.35444C232.19 3.3748 233.512 4.73529 234.514 6.39811C235.515 8.06092 236.007 9.8938 236.007 11.8778C236.007 13.2761 235.78 14.561 235.326 15.7703C234.873 16.9797 234.23 18.0756 233.38 19.0393H268.488V23.3097H181.417H181.398ZM224.386 65.4848H225.557C228.524 65.4848 230.943 63.9354 232.813 60.8176C234.684 57.6998 235.629 53.4861 235.629 48.1575C235.629 46.5892 235.478 44.8319 235.175 42.9045C234.873 40.9772 234.363 39.0876 233.626 37.2358C232.908 35.384 231.887 33.8724 230.584 32.7009C229.28 31.5293 227.598 30.9247 225.557 30.9247H224.386C221.419 30.9247 219.001 32.4741 217.13 35.5541C215.259 38.6341 214.314 42.8478 214.314 48.1575C214.314 53.4672 215.259 57.6998 217.13 60.8176C219.001 63.9354 221.419 65.4848 224.386 65.4848Z" fill="white"/>
</svg>
