<svg width="593" height="72" viewBox="0 0 593 72" fill="none" xmlns="http://www.w3.org/2000/svg">
<path d="M51.8262 47.1905C51.8262 50.7138 51.2958 53.934 50.235 56.87C49.1742 59.8061 47.6209 62.3633 45.5941 64.5038C43.5673 66.6443 41.0669 68.3681 38.0929 69.6372C36.3881 70.4328 34.4939 71.02 32.4102 71.4178C30.3265 71.8156 28.1292 72.005 25.8183 72.005C23.5073 72.005 21.4426 71.8156 19.4157 71.4178C17.3889 71.02 15.4947 70.4328 13.733 69.6372C11.422 68.6143 9.37627 67.3073 7.59568 65.7351C5.8151 64.1629 4.31865 62.3065 3.14422 60.185C1.96979 58.0634 1.09844 55.7335 0.549116 53.1763C0.359692 52.2102 0.227095 51.2252 0.132383 50.2213C0.0376711 49.2173 -0.000213623 48.2134 -0.000213623 47.1715V41.0721H4.64067V46.5275C4.64067 50.7706 5.53096 54.4644 7.33049 57.6277C9.11107 60.7722 11.5925 63.2347 14.737 64.9963C16.3092 65.9056 18.0519 66.5875 19.9651 67.0421C21.8782 67.4967 23.924 67.724 26.1024 67.724C30.3455 67.724 34.0392 66.8337 37.2026 65.0342C40.3471 63.2536 42.8096 60.7722 44.5712 57.6277C46.3329 54.4833 47.2042 50.7706 47.2042 46.5275V4.28598H-0.000213623V0.00499725H51.8262V47.1905Z" fill="white"/>
<path d="M133.657 26.1076V45.9213H91.7371V50.2781H133.657V71.1905H55.4624V0.00499725H133.657V21.7319H91.7371V26.0887H133.657V26.1076Z" fill="white"/>
<path d="M215.488 26.1076V45.9213H173.569V50.2781H215.488V71.1905H137.294V0.00499725H215.488V21.7319H173.569V26.0887H215.488V26.1076Z" fill="white"/>
<path d="M265.496 71.1905V48.7248H223.671V71.1905H219.125V0.00499725H223.671V22.376H265.496V0.00499725H270.042V71.1905H265.496Z" fill="white"/>
<path d="M337.875 0.00499725C342.421 0.00499725 345.887 1.55827 348.293 4.64588C350.68 7.73349 351.892 12.2607 351.892 18.1897V53.0058C351.892 58.8779 350.699 63.3862 348.293 66.5117C345.906 69.6372 342.421 71.1905 337.875 71.1905H287.772C283.169 71.1905 279.665 69.6372 277.278 66.5117C274.891 63.3862 273.679 58.8969 273.679 53.0058V18.1897C273.679 12.2418 274.872 7.73349 277.278 4.64588C279.665 1.55827 283.169 0.00499725 287.772 0.00499725L337.875 0.00499725ZM308.779 62.3823C308.779 63.8977 309.101 65.0342 309.726 65.7919C310.37 66.5496 311.223 66.9284 312.322 66.9284H313.136C314.235 66.9284 315.106 66.5496 315.769 65.7919C316.432 65.0342 316.773 63.8977 316.773 62.3823V8.83215C316.773 7.31676 316.432 6.18021 315.769 5.42252C315.106 4.66482 314.216 4.28598 313.136 4.28598H312.322C311.223 4.28598 310.37 4.66482 309.726 5.42252C309.082 6.18021 308.779 7.31676 308.779 8.83215V62.3823Z" fill="white"/>
<path d="M429.159 71.1905H378.241V0.00499725H382.788V44.9174H429.159V71.1905Z" fill="white"/>
<path d="M510.989 26.1076V45.9213H469.07V50.2781H510.989V71.1905H432.795V0.00499725H510.989V21.7319H469.07V26.0887H510.989V26.1076Z" fill="white"/>
<path d="M592.821 26.1076V45.9213H550.901V50.2781H592.821V71.1905H514.627V0.00499725H592.821V21.7319H550.901V26.0887H592.821V26.1076Z" fill="white"/>
</svg>
