<svg width="66" height="48" viewBox="0 0 66 48" fill="none" xmlns="http://www.w3.org/2000/svg">
<path fill-rule="evenodd" clip-rule="evenodd" d="M58.621 0H7.37606C5.70401 0 4.33333 1.35226 4.33333 3.00705V9.92696H61.6631V3.00705C61.6631 1.3552 60.2948 0 58.6204 0H58.621ZM11.0518 7.28588C9.75365 7.28588 8.70038 6.24496 8.70038 4.96201C8.70038 3.67907 9.75365 2.63814 11.0518 2.63814C12.35 2.63814 13.4033 3.67907 13.4033 4.96201C13.4033 6.24496 12.35 7.28588 11.0518 7.28588ZM19.2403 7.28588C17.9421 7.28588 16.8888 6.24496 16.8888 4.96201C16.8888 3.67907 17.9421 2.63814 19.2403 2.63814C20.5384 2.63814 21.5917 3.67907 21.5917 4.96201C21.5917 6.24496 20.5384 7.28588 19.2403 7.28588ZM27.4287 7.28588C26.1305 7.28588 25.0773 6.24496 25.0773 4.96201C25.0773 3.67907 26.1305 2.63814 27.4287 2.63814C28.7269 2.63814 29.7801 3.67907 29.7801 4.96201C29.7801 6.24496 28.7269 7.28588 27.4287 7.28588ZM4.33333 44.993C4.33333 46.6448 5.70163 48 7.37606 48H58.6239C60.2954 48 61.6667 46.6477 61.6667 44.993V14.1142L4.33333 14.1171V44.9959V44.993ZM40.1696 25.6407C39.2864 24.8864 39.1918 23.5647 39.9551 22.6918C40.7183 21.8189 42.0557 21.7255 42.9389 22.4797L51.0917 29.4602C52.0778 30.2837 52.0974 31.7952 51.1113 32.6376L42.9366 39.6344C42.0533 40.3887 40.7189 40.2953 39.9527 39.4224C39.1895 38.5494 39.284 37.2307 40.1673 36.4735L46.4946 31.0574L40.1673 25.6413H40.1696V25.6407ZM28.7459 38.6428L33.151 22.391C33.4517 21.2732 34.6138 20.6094 35.7449 20.9095C36.8761 21.2068 37.5477 22.3552 37.244 23.4731L32.8389 39.7249C32.5381 40.8428 31.3761 41.5066 30.245 41.2064C29.1138 40.9091 28.4421 39.7607 28.7459 38.6428ZM14.9041 29.4602L23.0569 22.4797C23.9402 21.7255 25.2746 21.8189 26.0408 22.6918C26.804 23.5647 26.7095 24.8835 25.8262 25.6407L19.4988 31.0568L25.8262 36.4729C26.7095 37.2271 26.804 38.5489 26.0408 39.4218C25.2776 40.2947 23.9402 40.3881 23.0569 39.6338L14.8821 32.637C13.8984 31.7946 13.915 30.2826 14.9017 29.4596H14.9041V29.4602Z" fill="#010101"/>
</svg>
